<?xml version="1.0" encoding="utf-8"?>
<!-- Generator: Adobe Illustrator 16.0.4, SVG Export Plug-In . SVG Version: 6.00 Build 0)  -->
<!DOCTYPE svg PUBLIC "-//W3C//DTD SVG 1.1//EN" "http://www.w3.org/Graphics/SVG/1.1/DTD/svg11.dtd">
<svg version="1.1" id="Layer_1" xmlns="http://www.w3.org/2000/svg" xmlns:xlink="http://www.w3.org/1999/xlink" x="0px" y="0px"
	 width="576px" height="576px" viewBox="0 0 576 576" enable-background="new 0 0 576 576" xml:space="preserve">
<g id="gridlines">
	<line fill="none" stroke="#000000" stroke-width="0.75" stroke-miterlimit="10" x1="0" y1="576" x2="576" y2="0"/>
	<line fill="none" stroke="#000000" stroke-width="0.75" stroke-miterlimit="10" x1="576" y1="576" x2="0" y2="0"/>
	<line fill="none" stroke="#000000" stroke-width="0.25" stroke-miterlimit="10" x1="0" y1="0" x2="576" y2="0"/>
	<line fill="none" stroke="#000000" stroke-width="0.25" stroke-miterlimit="10" x1="0" y1="24" x2="576" y2="24"/>
	<line fill="none" stroke="#000000" stroke-width="0.25" stroke-miterlimit="10" x1="0" y1="48" x2="576" y2="48"/>
	<line fill="none" stroke="#000000" stroke-width="0.25" stroke-miterlimit="10" x1="0" y1="72" x2="576" y2="72"/>
	<line fill="none" stroke="#000000" stroke-width="0.25" stroke-miterlimit="10" x1="0" y1="96" x2="576" y2="96"/>
	<line fill="none" stroke="#000000" stroke-width="0.25" stroke-miterlimit="10" x1="0" y1="120" x2="576" y2="120"/>
	<line fill="none" stroke="#000000" stroke-width="0.25" stroke-miterlimit="10" x1="0" y1="144" x2="576" y2="144"/>
	<line fill="none" stroke="#000000" stroke-width="0.25" stroke-miterlimit="10" x1="0" y1="168" x2="576" y2="168"/>
	<line fill="none" stroke="#000000" stroke-width="0.75" stroke-miterlimit="10" x1="0" y1="192" x2="576" y2="192"/>
	<line fill="none" stroke="#000000" stroke-width="0.25" stroke-miterlimit="10" x1="0" y1="216" x2="576" y2="216"/>
	<line fill="none" stroke="#000000" stroke-width="0.25" stroke-miterlimit="10" x1="0" y1="240" x2="576" y2="240"/>
	<line fill="none" stroke="#000000" stroke-width="0.25" stroke-miterlimit="10" x1="0" y1="264" x2="576" y2="264"/>
	<line fill="none" stroke="#000000" stroke-width="0.75" stroke-miterlimit="10" x1="0" y1="288" x2="576" y2="288"/>
	<line fill="none" stroke="#000000" stroke-width="0.25" stroke-miterlimit="10" x1="0" y1="312" x2="576" y2="312"/>
	<line fill="none" stroke="#000000" stroke-width="0.25" stroke-miterlimit="10" x1="0" y1="312" x2="576" y2="312"/>
	<line fill="none" stroke="#000000" stroke-width="0.25" stroke-miterlimit="10" x1="0" y1="336" x2="576" y2="336"/>
	<line fill="none" stroke="#000000" stroke-width="0.25" stroke-miterlimit="10" x1="0" y1="360" x2="576" y2="360"/>
	<line fill="none" stroke="#000000" stroke-width="0.75" stroke-miterlimit="10" x1="0" y1="384" x2="576" y2="384"/>
	<line fill="none" stroke="#000000" stroke-width="0.25" stroke-miterlimit="10" x1="0" y1="408" x2="576" y2="408"/>
	<line fill="none" stroke="#000000" stroke-width="0.25" stroke-miterlimit="10" x1="0" y1="432" x2="576" y2="432"/>
	<line fill="none" stroke="#000000" stroke-width="0.25" stroke-miterlimit="10" x1="0" y1="456" x2="576" y2="456"/>
	<line fill="none" stroke="#000000" stroke-width="0.25" stroke-miterlimit="10" x1="0" y1="480" x2="576" y2="480"/>
	<line fill="none" stroke="#000000" stroke-width="0.25" stroke-miterlimit="10" x1="0" y1="504" x2="576" y2="504"/>
	<line fill="none" stroke="#000000" stroke-width="0.25" stroke-miterlimit="10" x1="0" y1="528" x2="576" y2="528"/>
	<line fill="none" stroke="#000000" stroke-width="0.25" stroke-miterlimit="10" x1="0" y1="552" x2="576" y2="552"/>
	<line fill="none" stroke="#000000" stroke-width="0.25" stroke-miterlimit="10" x1="0" y1="576" x2="576" y2="576"/>
	<line fill="none" stroke="#000000" stroke-width="0.25" stroke-miterlimit="10" x1="0" y1="576" x2="0" y2="0"/>
	<line fill="none" stroke="#000000" stroke-width="0.25" stroke-miterlimit="10" x1="24" y1="576" x2="24" y2="0"/>
	<line fill="none" stroke="#000000" stroke-width="0.25" stroke-miterlimit="10" x1="48" y1="576" x2="48" y2="0"/>
	<line fill="none" stroke="#000000" stroke-width="0.25" stroke-miterlimit="10" x1="72" y1="576" x2="72" y2="0"/>
	<line fill="none" stroke="#000000" stroke-width="0.25" stroke-miterlimit="10" x1="96" y1="576" x2="96" y2="0"/>
	<line fill="none" stroke="#000000" stroke-width="0.25" stroke-miterlimit="10" x1="120" y1="576" x2="120" y2="0"/>
	<line fill="none" stroke="#000000" stroke-width="0.25" stroke-miterlimit="10" x1="144" y1="576" x2="144" y2="0"/>
	<line fill="none" stroke="#000000" stroke-width="0.25" stroke-miterlimit="10" x1="168" y1="576" x2="168" y2="0"/>
	<line fill="none" stroke="#000000" stroke-width="0.75" stroke-miterlimit="10" x1="192" y1="576" x2="192" y2="0"/>
	<line fill="none" stroke="#000000" stroke-width="0.25" stroke-miterlimit="10" x1="216" y1="576" x2="216" y2="0"/>
	<line fill="none" stroke="#000000" stroke-width="0.25" stroke-miterlimit="10" x1="240" y1="576" x2="240" y2="0"/>
	<line fill="none" stroke="#000000" stroke-width="0.25" stroke-miterlimit="10" x1="264" y1="576" x2="264" y2="0"/>
	<line fill="none" stroke="#000000" stroke-width="0.75" stroke-miterlimit="10" x1="288" y1="576" x2="288" y2="0"/>
	<line fill="none" stroke="#000000" stroke-width="0.25" stroke-miterlimit="10" x1="312" y1="576" x2="312" y2="0"/>
	<line fill="none" stroke="#000000" stroke-width="0.25" stroke-miterlimit="10" x1="312" y1="576" x2="312" y2="0"/>
	<line fill="none" stroke="#000000" stroke-width="0.25" stroke-miterlimit="10" x1="336" y1="576" x2="336" y2="0"/>
	<line fill="none" stroke="#000000" stroke-width="0.25" stroke-miterlimit="10" x1="360" y1="576" x2="360" y2="0"/>
	<line fill="none" stroke="#000000" stroke-width="0.75" stroke-miterlimit="10" x1="384" y1="576" x2="384" y2="0"/>
	<line fill="none" stroke="#000000" stroke-width="0.25" stroke-miterlimit="10" x1="408" y1="576" x2="408" y2="0"/>
	<line fill="none" stroke="#000000" stroke-width="0.25" stroke-miterlimit="10" x1="432" y1="576" x2="432" y2="0"/>
	<line fill="none" stroke="#000000" stroke-width="0.25" stroke-miterlimit="10" x1="456" y1="576" x2="456" y2="0"/>
	<line fill="none" stroke="#000000" stroke-width="0.25" stroke-miterlimit="10" x1="480" y1="576" x2="480" y2="0"/>
	<line fill="none" stroke="#000000" stroke-width="0.25" stroke-miterlimit="10" x1="504" y1="576" x2="504" y2="0"/>
	<line fill="none" stroke="#000000" stroke-width="0.25" stroke-miterlimit="10" x1="528" y1="576" x2="528" y2="0"/>
	<line fill="none" stroke="#000000" stroke-width="0.25" stroke-miterlimit="10" x1="552" y1="576" x2="552" y2="0"/>
	<line fill="none" stroke="#000000" stroke-width="0.25" stroke-miterlimit="10" x1="576" y1="576" x2="576" y2="0"/>
	<circle fill="none" stroke="#000000" stroke-width="0.75" stroke-miterlimit="10" cx="288" cy="288" r="240"/>
	<circle fill="none" stroke="#000000" stroke-width="0.75" stroke-miterlimit="10" cx="288" cy="288" r="120"/>
	<path fill="none" stroke="#000000" stroke-width="0.75" stroke-miterlimit="10" d="M72,120c0-24,24-48,48-48h336c24,0,48,24,48,48
		v336c0,24-24,48-48,48H120c-24,0-48-24-48-48V120z"/>
	<path fill="none" stroke="#000000" stroke-width="0.75" stroke-miterlimit="10" d="M120,96c0-24,24-48,48-48h240c24,0,48,24,48,48
		v384c0,24-24,48-48,48H168c-24,0-48-24-48-48V96z"/>
	<path fill="none" stroke="#000000" stroke-width="0.75" stroke-miterlimit="10" d="M96,456c-24,0-48-24-48-48V168c0-24,24-48,48-48
		h384c24,0,48,24,48,48v240c0,24-24,48-48,48H96z"/>
</g>
<polygon points="102.909,473.317 102.909,47.773 48,47.773 48,528.227 528.453,528.227 528.453,473.317 "/>
<path d="M163.666,398.876c18.923,0,34.318-15.394,34.318-34.316c0-1.188-0.062-2.369-0.184-3.543l61.065-66.974
	c5.169,0.276,10.352-0.644,15.077-2.627l74.082,41.419c4.082,14.452,17.268,24.857,32.989,24.857
	c18.924,0,34.318-15.396,34.318-34.318c0-1.246-0.068-2.49-0.205-3.726l74.43-96.077c18.03-1.002,32.391-15.988,32.391-34.265
	c0-18.923-15.395-34.318-34.318-34.318c-18.923,0-34.318,15.395-34.318,34.318c0,1.499,0.098,2.99,0.292,4.464l-73.833,95.309
	c-3.663,0.131-7.234,0.841-10.618,2.095l-75.979-42.478c-4.608-13.668-17.462-23.241-32.499-23.241
	c-18.923,0-34.318,15.396-34.318,34.318c0,0.215,0.003,0.431,0.007,0.648l-63.67,69.83c-18.476,0.518-33.344,15.709-33.344,34.308
	C129.347,383.482,144.743,398.876,163.666,398.876z"/>
</svg>
