<svg xmlns="http://www.w3.org/2000/svg"><symbol id="access-time" viewBox="0 0 576 576"><path fill-opacity=".9" d="m287.9 48c-132.6 0-239.9 107.4-239.9 240s107.3 240 239.9 240c132.6 0 240.1-107.4 240.1-240s-107.5-240-240.1-240z m0.1 432c-106.1 0-192-85.9-192-192s85.9-192 192-192 192 85.9 192 192-85.9 192-192 192z m12-312h-36v144l125.9 75.6 18.1-29.5-108-64.1z"/></symbol><symbol id="add" viewBox="0 0 576 576">
  
  <path d="m456 312h-144v144h-48v-144h-144v-48h144v-144h48v144h144v48z"/>
</symbol><symbol id="arrow-drop-down" viewBox="0 0 576 576"><path d="m168 240l120 120 120-120z"/></symbol><symbol id="arrow-drop-up" viewBox="0 0 576 576"><path d="m168 336l120-120 120 120z"/></symbol><symbol id="bar-chart" viewBox="0 0 576 576">

<rect x="47.193" y="456" width="481.307" height="72"/>
<rect x="72" y="312" width="72" height="96"/>
<polygon points="192,144 264,144 264,408 192.001,408 192.001,144 "/>
<rect x="312" y="240" width="72" height="168"/>
<rect x="432" y="48" width="72" height="360"/>
</symbol><symbol id="cached" viewBox="0 0 576 576"><path d="m456 192l-96 96h72c0 79.6-64.4 144-144 144-24.4 0-47.2-6.1-67.3-16.7l-35.1 35.1c29.8 18.6 64.7 29.6 102.4 29.6 106.1 0 192-85.9 192-192h72l-96-96z m-312 96c0-79.6 64.4-144 144-144 24.4 0 47.2 6.1 67.3 16.7l35.1-35.1c-29.8-18.6-64.7-29.6-102.4-29.6-106.1 0-192 85.9-192 192h-72l96 96 96-96h-72z"/></symbol><symbol id="call" viewBox="0 0 576 576">

<g transform="translate(96 384)">
	<path d="M406.676,32.713l-2.129-6.455c-5.137-15.184-21.852-31.033-37.233-35.19l-56.928-15.552
		c-15.452-4.2-37.46,1.461-48.741,12.742L241.041,8.861C166.17-11.373,107.454-70.09,87.227-144.953l20.603-20.604
		c11.288-11.288,16.942-33.288,12.757-48.733l-15.517-56.957c-4.2-15.445-20.063-32.167-35.226-37.24l-6.491-2.178
		c-15.183-5.059-36.836,0.057-48.138,11.344l-30.805,30.849c-5.52,5.477-9.024,21.142-9.024,21.199
		C-25.686-149.423,12.661-55.119,81.892,14.068c69.046,69.046,162.967,107.357,260.534,106.535c0.511,0,16.644-3.463,22.135-8.939
		l30.806-30.82C406.619,69.606,411.756,47.896,406.676,32.713L406.676,32.713z"/>
</g>
</symbol><symbol id="camera-alt" viewBox="0 0 576 576">

<circle fill="#FF0000" cx="288" cy="288" r="76.8"/>
<path d="M216,48l-43.9,48H96c-26.5,0-48,21.5-48,48v288c0,26.5,21.5,48,48,48h384c26.5,0,48-21.5,48-48V144c0-26.5-21.5-48-48-48
	h-76.1L360,48H216z M288,408c-66.2,0-120-53.8-120-120s53.8-120,120-120s120,53.8,120,120S354.2,408,288,408z"/>
</symbol><symbol id="clear" viewBox="0 0 576 576"><path d="m456 154l-34-34-134 134-134-134-34 34 134 134-134 134 34 34 134-134 134 134 34-34-134-134z"/></symbol><symbol id="control-point" viewBox="0 0 576 576"><path d="m312 168h-48v96h-96v48h96v96h48v-96h96v-48h-96v-96z m-24-120c-132.4 0-240 107.6-240 240s107.6 240 240 240 240-107.6 240-240-107.6-240-240-240z m0 432c-105.8 0-192-86.2-192-192s86.2-192 192-192 192 86.2 192 192-86.2 192-192 192z"/></symbol><symbol id="done" viewBox="0 0 576 576"><path d="m216 388.1l-100.1-100.1-33.9 34 134 134 288-288-34-34z"/></symbol><symbol id="favorite" viewBox="0 0 576 576"><path d="m288 512.4l-34.8-31.6c-123.6-112.2-205.2-186.2-205.2-276.8 0-74 58-132 132-132 41.8 0 81.8 19.4 108 50 26.2-30.6 66.2-50 108-50 74 0 132 58 132 132 0 90.6-81.6 164.6-205.2 276.8l-34.8 31.6z"/></symbol><symbol id="file-download" viewBox="0 0 576 576"><path d="m456 216h-96v-144h-144v144h-96l168 168 168-168z m-336 216v48h336v-48h-336z"/></symbol><symbol id="file-upload" viewBox="0 0 576 576">
  
  <path d="m216 384h144v-144h96l-168-168-168 168h96z m-96 48h336v48h-336z"/>
</symbol><symbol id="keyboard-arrow-down" viewBox="0 0 576 576"><path d="m178 197l110 110.1 110-110.1 34 34-144 144-144-144z"/></symbol><symbol id="keyboard-arrow-left" viewBox="0 0 576 576"><path d="m370 392l-110.1-110 110.1-110-34-34-144 144 144 144z"/></symbol><symbol id="keyboard-arrow-right" viewBox="0 0 576 576"><path d="m206 395l110.1-110-110.1-110 34-34 144 144-144 144z"/></symbol><symbol id="keyboard-arrow-up" viewBox="0 0 576 576"><path d="m178 370l110-110.1 110 110.1 34-34-144-144-144 144z"/></symbol><symbol id="line-chart" viewBox="0 0 576 576">

<polygon points="102.909,473.317 102.909,47.773 48,47.773 48,528.227 528.453,528.227 528.453,473.317 "/>
<path d="M163.666,398.876c18.923,0,34.318-15.394,34.318-34.316c0-1.188-0.062-2.369-0.184-3.543l61.065-66.974
	c5.169,0.276,10.352-0.644,15.077-2.627l74.082,41.419c4.082,14.452,17.268,24.857,32.989,24.857
	c18.924,0,34.318-15.396,34.318-34.318c0-1.246-0.068-2.49-0.205-3.726l74.43-96.077c18.03-1.002,32.391-15.988,32.391-34.265
	c0-18.923-15.395-34.318-34.318-34.318c-18.923,0-34.318,15.395-34.318,34.318c0,1.499,0.098,2.99,0.292,4.464l-73.833,95.309
	c-3.663,0.131-7.234,0.841-10.618,2.095l-75.979-42.478c-4.608-13.668-17.462-23.241-32.499-23.241
	c-18.923,0-34.318,15.396-34.318,34.318c0,0.215,0.003,0.431,0.007,0.648l-63.67,69.83c-18.476,0.518-33.344,15.709-33.344,34.308
	C129.347,383.482,144.743,398.876,163.666,398.876z"/>
</symbol><symbol id="lock" viewBox="0 0 576 576"><path d="m432 192h-24v-48c0-66.2-53.8-120-120-120s-120 53.8-120 120v48h-24c-26.5 0-48 21.5-48 48v240c0 26.5 21.5 48 48 48h288c26.5 0 48-21.5 48-48v-240c0-26.5-21.5-48-48-48z m-144 216c-26.5 0-48-21.5-48-48s21.5-48 48-48 48 21.5 48 48-21.5 48-48 48z m74.4-216h-148.8v-48c0-41 33.4-74.4 74.4-74.4 41 0 74.4 33.4 74.4 74.4v48z"/></symbol><symbol id="my-library-add" viewBox="0 0 576 576"><path d="m96 144h-48v336c0 26.5 21.5 48 48 48h336v-48h-336v-336z m384-96h-288c-26.5 0-48 21.5-48 48v288c0 26.5 21.5 48 48 48h288c26.5 0 48-21.5 48-48v-288c0-26.5-21.5-48-48-48z m-24 216h-96v96h-48v-96h-96v-48h96v-96h48v96h96v48z"/></symbol><symbol id="person" viewBox="0 0 576 576"><path d="m288 288c53 0 96-43.1 96-96 0-53-43-96-96-96s-96 43-96 96c0 52.9 43 96 96 96z m0 48c-64 0-192 32-192 96v48h384v-48c0-64-128-96-192-96z"/></symbol><symbol id="refresh" viewBox="0 0 576 576"><path d="m423.6 152.4c-34.7-34.8-82.6-56.4-135.6-56.4-106.1 0-191.8 85.9-191.8 192s85.7 192 191.8 192c89.4 0 164.3-61.2 185.5-144h-49.9c-19.8 55.9-72.8 96-135.6 96-79.6 0-144-64.4-144-144s64.4-144 144-144c39.7 0 75.4 16.6 101.4 42.6l-77.4 77.4h168v-168l-56.4 56.4z"/></symbol><symbol id="search" viewBox="0 0 576 576">
  
  <path d="m372 336h-19.1l-6.6-6.6c23.5-27.2 37.7-62.6 37.7-101.4 0-86.2-69.8-156-156-156s-156 69.8-156 156 69.8 156 156 156c38.8 0 74.2-14.2 101.4-37.6l6.6 6.6v19l120 119.8 35.8-35.8-119.8-120z m-144 0c-59.6 0-108-48.4-108-108s48.4-108 108-108 108 48.4 108 108-48.4 108-108 108z"/>
</symbol></svg>